# xmcd CD database file
#
# Track frame offsets:
#	150
#	24117
#	55716
#	79721
#	103443
#	123124
#	142534
#	174218
#	202978
#	224541
#	257300
#	288019
#	313960
#	336701
#
# Disc length: 4735 seconds
#
# Revision: 0
# Processed by: cddbd v1.5.1PL2 Copyright (c) Steve Scherf et al.
# Submitted via: CDex 1.51
#
DISCID=bc127d0e
DTITLE=Diverse - Les Nouveaux Hits du Kompa
DYEAR=2005
DGENRE=Salsa
TTITLE0=Carimi - Are U Ready
TTITLE1=T Vice - 4 Las
TTITLE2=Farenheit - Tout Se pou ou
TTITLE3=Top Vice - Bam Top Vice Mwen
TTITLE4=Option - Ou sou blof
TTITLE5=Kreyol La - An'n Ale
TTITLE6=Nu Look - Gran Depanse
TTITLE7=Djakout Mizik - Bizniss Pa m
TTITLE8=Michel Martelly - Eastern Parkway
TTITLE9=Dega - Al kwe sa
TTITLE10=X Factor - You and I
TTITLE11=Dekwochay - Pran pitit ou
TTITLE12=Wudjanhi - Haiti La Perle
TTITLE13=Sweet Kompa - Step By Step
EXTD=YEAR: 2005
EXTT0=
EXTT1=
EXTT2=
EXTT3=
EXTT4=
EXTT5=
EXTT6=
EXTT7=
EXTT8=
EXTT9=
EXTT10=
EXTT11=
EXTT12=
EXTT13=
PLAYORDER=
